<?xml version="1.0" encoding="UTF-8" standalone="no"?>
<svg width="459px" height="40px" viewBox="0 0 459 40" version="1.1" xmlns="http://www.w3.org/2000/svg" xmlns:xlink="http://www.w3.org/1999/xlink" xmlns:sketch="http://www.bohemiancoding.com/sketch/ns">
    <title>title</title>
    <description>Created with Sketch (http://www.bohemiancoding.com/sketch)</description>
    <defs></defs>
    <g id="Page-1" stroke="none" stroke-width="1" fill="none" fill-rule="evenodd" sketch:type="MSPage">
        <path d="M38.82,37.436 C34.326,34.37 31.008,31.472 28.614,28.112 C31.512,23.912 33.486,18.83 34.326,11.816 L37.854,11.816 L37.854,9.842 L23.868,9.842 C24.666,7.28 25.38,4.676 26.094,1.19 L24.036,0.602 C22.23,9.38 20.508,14.546 16.812,21.56 L18.66,22.61 C19.878,20.3 20.844,18.2 21.642,16.268 C22.818,21.182 24.288,24.794 26.346,28.028 C23.322,31.85 18.954,34.622 13.368,37.31 L14.544,39.242 C20.214,36.386 24.372,33.53 27.522,29.708 C29.832,32.858 32.856,35.798 37.392,39.326 L38.82,37.436 Z M20.13,6.734 L20.13,4.718 L1.146,4.718 L1.146,6.734 L10.008,6.734 L10.008,31.724 C8.538,32.186 7.446,32.606 5.808,32.984 L5.808,12.53 L3.708,12.53 L3.708,33.572 C2.658,33.866 1.314,34.16 0.096,34.454 L0.852,36.68 C8.748,34.664 13.494,32.9 20.088,30.086 L19.71,28.028 C17.022,29.162 14.88,30.044 12.066,31.052 L12.066,18.41 L17.946,18.41 L17.946,16.436 L12.066,16.436 L12.066,6.734 L20.13,6.734 Z M32.184,11.816 C31.512,17.822 30.042,22.568 27.522,26.306 C25.38,22.778 23.994,18.578 22.818,13.202 L23.28,11.816 L32.184,11.816 Z M108.358,17.822 L108.358,15.764 L103.276,15.764 L103.276,8.834 L101.134,8.834 L101.134,15.764 L87.736,15.764 L87.736,17.822 L101.134,17.822 L101.134,35.588 C101.134,36.344 100.756,36.722 99.958,36.722 C98.614,36.722 97.816,36.68 95.128,36.47 L95.338,38.612 C97.648,38.738 98.656,38.738 99.958,38.738 C101.974,38.738 103.276,37.814 103.276,35.84 L103.276,17.822 L108.358,17.822 Z M108.106,7.322 L108.106,5.306 L93.154,5.306 C92.356,3.5 91.852,2.576 90.718,0.224 L88.744,1.274 C89.752,3.164 90.13,3.92 90.802,5.306 L74.464,5.306 L74.464,20.258 C74.464,27.86 73.456,32.102 70.096,37.898 L71.902,38.948 C75.388,32.774 76.48,28.532 76.48,20.3 L76.48,7.322 L108.106,7.322 Z M96.682,30.17 C94.876,26.684 93.91,24.92 91.768,21.098 L90.046,22.106 C92.062,25.76 92.944,27.692 94.708,31.262 L96.682,30.17 Z M84.838,17.612 C86.224,14.756 87.19,12.278 88.156,9.212 L86.308,8.456 C84.418,14.63 81.226,20.762 77.194,26.348 L78.916,27.65 C80.218,25.802 81.688,23.324 82.822,21.434 L82.822,39.158 L84.838,39.158 L84.838,17.612 Z M178.19,28.7 L178.19,26.768 L173.99,26.768 L175.418,3.584 L165.926,3.584 L165.926,5.432 L173.36,5.432 L172.982,11.354 L166.094,11.354 L166.094,13.244 L172.856,13.244 L172.478,18.956 L166.136,18.956 L166.136,20.804 L172.394,20.804 L171.974,26.768 L164.162,26.768 L164.162,13.202 L157.694,13.202 L157.694,7.742 L164.666,7.742 L164.666,5.852 L157.694,5.852 L157.694,0.812 L155.762,0.812 L155.762,15.05 L162.23,15.05 L162.23,26.768 L157.778,26.768 L157.778,17.822 L155.804,17.822 L155.804,26.768 L147.068,26.768 L146.774,20.804 L152.864,20.804 L152.864,18.956 L146.69,18.956 L146.438,13.244 L152.864,13.244 L152.864,11.354 L146.354,11.354 L146.102,6.398 C148.664,5.6 150.806,4.928 153.662,3.794 L152.36,2.114 C149.126,3.458 147.068,4.214 144.002,5.012 L145.136,26.768 L140.768,26.768 L140.768,28.7 L178.19,28.7 Z M178.904,37.226 C173.444,34.244 169.748,32.396 164.246,29.582 L163.322,31.304 C168.488,33.992 172.268,36.134 177.812,39.242 L178.904,37.226 Z M141.482,38.822 C146.144,36.68 150.932,34.16 155.846,31.304 L154.922,29.666 C150.008,32.354 145.892,34.37 140.516,36.848 L141.482,38.822 Z M212.112,39.242 C220.89,32.858 225.426,26.81 228.66,16.142 C230.76,24.836 238.11,33.866 247.308,39.242 L248.652,37.058 C239.706,32.228 232.356,23.954 229.584,12.908 C230.214,9.38 230.634,5.516 230.76,0.854 L228.618,0.644 C228.114,22.022 220.974,30.086 210.558,37.31 L212.112,39.242 Z M315.292,38.57 C317.308,38.57 317.812,37.142 318.82,31.556 L316.552,29.96 C316.006,34.706 315.712,36.176 314.83,36.176 C312.688,36.176 306.052,31.892 303.028,22.4 L318.022,22.4 L318.022,20.342 L302.482,20.342 C301.978,18.2 301.642,15.974 301.6,13.412 L313.948,13.412 L313.948,2.618 L285.094,2.618 L285.094,35 C283.54,35.378 282.364,35.63 280.39,36.008 L281.23,38.36 C287.656,36.89 293.116,35.336 300.592,33.236 L300.214,31.136 C296.224,32.312 292.36,33.32 287.194,34.538 L287.194,22.4 L300.802,22.4 C303.952,33.404 311.764,38.57 315.292,38.57 Z M311.764,11.396 L287.194,11.396 L287.194,4.676 L311.764,4.676 L311.764,11.396 Z M299.458,13.412 C299.584,15.932 299.836,18.2 300.298,20.342 L287.194,20.342 L287.194,13.412 L299.458,13.412 Z M360.302,6.692 C358.832,4.634 357.782,3.164 356.144,1.022 L354.632,2.072 C356.186,4.172 357.152,5.684 358.538,7.826 L360.302,6.692 Z M383.108,31.934 C381.596,29.792 380.252,27.986 378.698,26.012 L377.186,27.062 C378.74,29.162 379.832,30.884 381.302,33.236 L383.108,31.934 Z M386.678,35.42 C387.098,33.656 387.518,27.818 387.518,22.484 L381.512,22.484 L383.57,15.302 L377.648,15.302 L379.412,8.288 L365.384,8.288 C366.182,5.936 366.896,3.668 367.526,1.022 L365.678,0.308 C364.964,3.122 364.418,5.642 363.452,8.288 L351.44,8.288 L351.44,10.178 L362.78,10.178 C359.756,18.41 355.472,26.18 350.096,32.774 L351.608,34.118 C354.086,30.968 355.976,28.196 358.202,24.374 L385.502,24.374 C385.502,27.986 384.998,33.446 384.662,35.042 C384.368,36.008 383.906,36.428 382.688,36.428 C381.302,36.428 379.244,36.176 377.606,35.882 L377.858,38.066 C379.328,38.36 381.218,38.57 382.688,38.57 C385.502,38.57 386.216,37.562 386.678,35.42 Z M375.968,34.622 C375.128,31.976 374.372,29.834 373.238,27.104 L371.39,27.734 C372.356,30.422 373.07,32.564 373.868,35.294 L375.968,34.622 Z M368.702,36.848 C368.03,33.614 367.526,31.136 366.728,28.112 L364.838,28.532 C365.51,31.766 365.972,34.16 366.518,37.31 L368.702,36.848 Z M357.068,37.772 C358.958,34.286 360.05,32.06 361.856,28.322 L360.218,27.524 C358.328,31.178 357.194,33.152 355.052,36.638 L357.068,37.772 Z M376.976,10.178 L375.506,15.302 L362.696,15.302 C363.41,13.664 364.124,11.984 364.754,10.178 L376.976,10.178 Z M381.008,17.192 L379.496,22.484 L359.21,22.484 C360.176,20.804 361.016,18.998 361.898,17.192 L381.008,17.192 Z M458.988,37.604 C455.796,34.454 453.78,31.766 451.974,28.784 C454.578,23.576 455.712,18.578 456.258,11.816 L458.19,11.816 L458.19,9.884 L447.942,9.884 C448.74,7.028 449.244,4.382 449.748,1.358 L447.816,0.812 C446.808,8.414 444.96,14.336 442.398,20.51 L444.162,21.392 C444.834,19.838 445.17,18.746 445.8,17.108 C446.766,21.98 447.984,25.298 449.79,28.7 C447.984,31.766 445.422,34.496 441.726,37.52 L443.112,39.116 C446.64,36.092 449.034,33.236 450.84,30.506 C452.394,33.068 454.41,35.882 457.434,39.242 L458.988,37.604 Z M443.406,6.608 L443.406,4.718 L433.452,4.718 C432.822,3.038 432.444,1.946 431.646,0.14 L429.756,0.938 C430.47,2.45 430.848,3.416 431.352,4.718 L420.852,4.718 L420.852,6.608 L443.406,6.608 Z M438.534,37.73 C441.054,37.73 442.02,36.974 442.02,34.244 L442.02,12.488 L435.93,12.488 C436.644,11.018 437.106,9.926 437.988,7.784 L436.14,7.07 C435.258,9.38 434.88,10.598 433.872,12.488 L430.47,12.488 L428.034,7.07 L426.186,7.91 C427.194,9.8 427.698,10.934 428.37,12.488 L422.616,12.488 L422.616,39.032 L424.59,39.032 L424.59,14.336 L440.046,14.336 L440.046,34.328 C440.046,35.462 439.668,35.714 438.534,35.714 C437.568,35.714 436.392,35.546 434.922,35.378 L435.09,37.478 C436.266,37.646 437.4,37.73 438.534,37.73 Z M438.828,20.594 L438.828,18.83 L433.326,18.83 L433.326,15.008 L431.52,15.008 L431.52,18.83 L425.808,18.83 L425.808,20.594 L431.52,20.594 L431.52,23.744 L427.782,23.744 L427.782,33.53 L429.63,33.53 L429.63,31.556 L434.964,31.556 L434.964,33.194 L436.812,33.194 L436.812,23.744 L433.326,23.744 L433.326,20.594 L438.828,20.594 Z M454.242,11.816 C453.906,18.074 452.856,22.526 450.882,26.81 C449.034,23.072 447.816,18.746 446.934,13.58 C447.06,13.034 447.27,12.446 447.48,11.816 L454.242,11.816 Z M434.964,29.75 L429.63,29.75 L429.63,25.55 L434.964,25.55 L434.964,29.75 Z" id="政府與人民為敵" fill="#FFFFFF" sketch:type="MSShapeGroup"></path>
    </g>
</svg>